<svg width="137" height="190" viewBox="0 0 137 190" fill="none" xmlns="http://www.w3.org/2000/svg">
<path d="M86.7273 0.818176H136.545V128.455C136.485 140.576 133.424 151.242 127.364 160.455C121.364 169.606 113.061 176.758 102.455 181.909C91.9091 187 79.7576 189.545 66 189.545C54.0606 189.545 43.1515 187.485 33.2727 183.364C23.3939 179.182 15.5152 172.636 9.63636 163.727C3.75758 154.758 0.848485 143.121 0.909091 128.818H51.4545C51.6364 133.485 52.4242 137.424 53.8182 140.636C55.2727 143.848 57.2727 146.273 59.8182 147.909C62.4242 149.485 65.5758 150.273 69.2727 150.273C73.0303 150.273 76.1818 149.455 78.7273 147.818C81.3333 146.182 83.303 143.758 84.6364 140.545C85.9697 137.273 86.6667 133.242 86.7273 128.455V0.818176Z" fill="black"/>
</svg>
